<svg width="80" height="80" fill="none" xmlns="http://www.w3.org/2000/svg"><mask id="a" mask-type="alpha" maskUnits="userSpaceOnUse" x="0" y="0" width="80" height="80"><path d="M80 0H0v80h80V0Z" fill="#fff"/></mask><g mask="url(#a)"><path d="M80 0H0v80h80V0Z" fill="#fff"/><path d="M0 40c0 22.091 17.909 40 40 40s40-17.909 40-40S62.091 0 40 0 0 17.909 0 40Z" fill="#fff"/><path d="m36.62 46.824.082.01c.606.083 1.201.193 1.657.396.424.187.67.424.897.844.343.638.366 1.533.056 2.21-.233.502-.743.925-1.208 1.15-.483.234-.959.345-1.505.407-.956.105-1.987-.093-2.846-.509-.509-.248-1.129-.676-1.442-1.226a1.22 1.22 0 0 1 .057-1.312c.447-.611 1.403-.746 2.124-.72.55.021 1.539.19 2.06.376.145.053.677.26.77.355.066.066.108.163.08.252-.12.365-1.006.557-1.261.595-.685.104-1.04-.155-1.819-.462a2.676 2.676 0 0 0-.648-.177c-.353-.034-.78.065-.848.451-.033.2.2.386.378.463.417.18.757.244 1.168.25 1.214.02 2.579-.18 3.572-.885.136-.096.27-.239.27-.417.005-.362-.628-.583-.628-.583-.67-.279-1.906-.415-2.542-.468-.669-.057-1.72-.145-1.972-.182-.26-.037-.542-.09-.767-.19-.226-.103-.447-.33-.513-.584-.117-.456.032-1.015.285-1.379.664-.953 2.217-1.316 3.379-1.46 1.124-.14 2.94-.138 4.045.448.17.091.257.177.22.358-.071.343-.328.563-.64.66-.326.103-1.002.145-1.3.163-1.331.075-2.94.036-4.207.381-.099.029-.27.075-.326.138-.2.215.368.277.49.302.035.008.042.01.08.013l2.802.332Zm-7.917-5.934s.217-.325.398-.571c.33-.448.927-1.07 1.378-1.456.138-.117.3-.25.3-.25s-.254.026-.398.055c-.341.066-.842.4-1.093.614-.412.354-.867.928-.662 1.438.03.072.077.17.077.17Zm2.295.613a4.352 4.352 0 0 0 1.832-.548c.558-.313 1.378-.92 1.293-1.637a.6.6 0 0 0-.369-.487c-.25-.108-.378-.09-.696.003-.23.069-.335.109-.553.234-.64.371-1.547 1.167-2.04 1.801-.113.15-.229.317-.319.433-.057.07-.1.136-.095.153.019.073.692.066.947.048Zm-1.662 1.22c-.067.07-.138.242-.212.367a.74.74 0 0 1-.16.186c-.17.125-.314.132-.478-.013a1.166 1.166 0 0 1-.372-.823c-.004-.134.018-.281-.006-.394-.042-.19-.232-.385-.335-.567a2.22 2.22 0 0 1-.23-.828c-.04-.75.355-1.442.869-1.988a5.73 5.73 0 0 1 1.932-1.322c.696-.293 1.717-.493 2.482-.229.25.085.596.298.77.519.038.046.068.097.106.12.034.022.123.03.194.043.243.043.595.227.739.35.288.248.446.487.519.831.146.695-.253 1.456-.71 1.919-.779.797-1.548 1.36-2.546 1.749-.438.17-1.12.33-1.617.286-.154-.013-.313-.054-.463-.064a2.14 2.14 0 0 1-.386-.099c-.038-.028-.087-.053-.096-.043Zm.891 1.538c.03.006.078.02.118.034.35.134.493.457.58.812.2.825.284 2.651.317 3.365.025.536.038 1.064.06 1.594.02.45.055 1.046-.038 1.467a.689.689 0 0 1-.28.417c-.166.106-.544.115-.751.07-.511-.105-.679-.434-.752-.94-.174-1.208-.09-3.58.013-4.58.033-.33.158-1.388.331-1.832.058-.147.184-.45.402-.407Zm-15.571 2.01s-.762.054-1.287.112c-.667.072-1.92.289-2.644.547-.216.078-.657.262-.696.486-.04.23.103.412.263.6.092.108.614.61.761.733.615.512 1.86 1.303 2.777 1.687.315.13.836.317.836.317s-.038-1.484-.032-2.947c.006-.771.022-1.535.022-1.535Zm13.968.59c.044.4-.058 1.153-.076 1.252-.033.23-.206.758-.234.822a9.413 9.413 0 0 1-.422.847c-.25.45-.844 1.163-1.196 1.467-1.311 1.133-3.342 1.78-5.083 1.992a12.97 12.97 0 0 1-3.792-.11 30.495 30.495 0 0 1-1.072-.226s.003.256-.019.437c-.01.082-.072.299-.106.37-.091.187-.24.285-.459.326-.261.048-.54.065-.783-.038-.397-.167-.54-.54-.61-.97-.056-.343-.114-.94-.114-.94s-.298-.142-.546-.266a14.204 14.204 0 0 1-2.12-1.3 25.09 25.09 0 0 1-1.097-.92c-.466-.442-.886-.883-1.206-1.45-.249-.44-.32-.834-.132-1.301.26-.653 1.197-1.144 1.837-1.425.47-.207 1.932-.685 2.538-.772.287-.042.732-.122.76-.138a.148.148 0 0 0 .027-.025c.014-.02.037-.666.032-.902-.005-.233.172-1.76.23-2.081.03-.175.161-.846.297-1.024.088-.119.244-.11.372-.031.696.432.907 1.934.959 2.699.031.466.046 1.166.046 1.166s.799-.024 1.29-.01c.478.011 1.004.086 1.5.166.635.101 1.872.372 2.581.731.584.297 1.131.795 1.308 1.323.165.484.14.82-.111 1.256-.282.493-.816.86-1.356.89-.16.01-.766-.07-.953-.214-.073-.058-.07-.161-.017-.231.02-.025.304-.175.47-.263.084-.046.153-.094.218-.154.14-.122.264-.257.25-.414-.019-.205-.236-.332-.442-.412-.968-.385-2.903-.705-3.837-.76-.366-.021-.886-.04-.886-.04l.11 5.161s.43.082.77.137c.193.03 1.018.104 1.237.11 1.667.043 3.53-.105 5.059-.829.672-.317 1.288-.71 1.755-1.242.615-.705.936-1.67.852-2.678-.093-1.102-.868-2.408-1.487-3.203-1.634-2.103-4.437-3.832-6.902-4.846-2.518-1.035-5.005-1.63-7.675-1.729-.69-.026-2.19.01-2.949.22-.108.03-.218.067-.319.09a.866.866 0 0 0-.24.1.482.482 0 0 0-.037.035s.047.026.09.045c.081.035.42.056.595.089.156.029.32.112.384.227.062.109.07.195-.005.286-.171.21-.818.174-1.104.13-.296-.048-.665-.139-.732-.396-.079-.303.065-.601.221-.877.314-.55.762-.837 1.419-1.017a14.41 14.41 0 0 1 2.992-.47c1.995-.075 3.882.274 5.814.861 1.105.334 2.553.895 3.613 1.406a28.53 28.53 0 0 1 2.632 1.482c.212.14 1.455 1.052 1.648 1.213.403.33.929.802 1.31 1.18.738.732 1.655 1.852 2.101 2.742.107.214.19.423.33.67.046.084.251.59.285.737.033.145.083.357.09.365.01.073.104.507.097.675Zm25.069-1.14c-.934.215-3.39.334-3.39.334l-.31.97s1.227-.105 2.12-.012c0 0 .29-.033.323.328.011.338-.028.7-.028.7s-.02.22-.33.275c-.335.056-2.645.145-2.645.145l-.374 1.265s-.139.292.172.209c.29-.078 2.708-.531 3.023-.466.338.084.71.533.603.944-.13.51-2.543 2.048-4.013 1.941 0 0-.773.05-1.426-.992-.607-.995.23-2.875.23-2.875s-.384-.878-.105-1.176c0 0 .165-.15.65-.184l.591-1.224s-.674.046-1.075-.45c-.373-.47-.404-.686-.118-.816.307-.152 3.113-.664 5.045-.6 0 0 .67-.064 1.253 1.1.001 0 .283.471-.196.584Zm-7.264 4.707c-.247.582-.901 1.204-1.714.818-.802-.388-2.08-3.002-2.08-3.002s-.485-.974-.578-.949c0 0-.104-.19-.168.875-.067 1.06.012 3.13-.41 3.454-.401.327-.887.197-1.138-.184-.23-.376-.324-1.268-.2-2.836.148-1.572.512-3.243.978-3.763.466-.517.84-.142.985-.006 0 0 .623.565 1.65 2.222l.181.307s.933 1.566 1.031 1.562c0 0 .077.072.144.02.098-.028.058-.53.058-.53s-.193-1.706-1.044-4.595c0 0-.13-.36-.042-.697.087-.342.43-.181.43-.181s1.32.664 1.96 2.812c.635 2.147.208 4.087-.043 4.673Zm14.203-1.287c-.6 1.048-2.297 3.243-4.55 2.725-.745 1.805-1.37 3.631-1.727 6.363 0 0-.078.531-.52.347-.437-.154-1.158-.88-1.303-1.886-.156-1.32.432-3.555 1.634-6.115-.35-.57-.59-1.384-.386-2.544 0 0 .303-2.153 2.465-4.094 0 0 .26-.225.409-.155.165.07.088.77-.043 1.11-.136.34-1.1 2.007-1.1 2.007s-.6 1.125-.431 2.014c1.134-1.743 3.712-5.26 5.31-4.152.538.384.785 1.22.785 2.12 0 .79-.19 1.63-.543 2.26Zm-.466-2.761s-.089-.693-.767.07c-.583.644-1.635 1.852-2.48 3.492.887-.1 1.744-.582 2.004-.827.42-.374 1.4-1.387 1.243-2.735Zm12.881-.159h-4.13a32.27 32.27 0 0 0-.519-4.18.307.307 0 0 0-.302-.25h-.951a.282.282 0 0 0-.275.335c.27 1.361.44 2.703.525 4.097h-3.974a.335.335 0 0 0-.336.334v.858c0 .186.15.336.336.336h4.03c.003.213.005.403.005.58 0 1.238-.053 2.256-.179 3.408a.305.305 0 0 0 .08.242.311.311 0 0 0 .23.104h.883c.172 0 .314-.13.332-.301.12-1.16.172-2.192.172-3.453 0-.178-.002-.369-.004-.58h4.074c.184 0 .336-.15.336-.335v-.859a.331.331 0 0 0-.333-.336Z" fill="#01147B"/><path d="M67.84 39.772a28.39 28.39 0 0 0-10.29-12.763 28.271 28.271 0 0 0-16.06-4.962 28.382 28.382 0 0 0-23.674 12.68.33.33 0 0 0-.039.293c.035.1.111.176.21.21l.74.249a.414.414 0 0 0 .475-.16 27.204 27.204 0 0 1 9.489-8.578 26.972 26.972 0 0 1 12.799-3.235c5.397 0 10.604 1.59 15.06 4.602a26.97 26.97 0 0 1 9.762 11.851c.06.144.201.237.357.237h.884a.308.308 0 0 0 .255-.137.305.305 0 0 0 .032-.287Z" fill="url(#b)"/></g><defs><radialGradient id="b" cx="0" cy="0" r="1" gradientUnits="userSpaceOnUse" gradientTransform="matrix(-50 0 0 -50 68 40)"><stop stop-color="#01147B"/><stop offset="0" stop-color="#01147B"/><stop offset=".025" stop-color="#011098"/><stop offset=".064" stop-color="#010ABD"/><stop offset=".103" stop-color="#0006DA"/><stop offset=".142" stop-color="#0003EE"/><stop offset=".179" stop-color="#0001FB"/><stop offset=".216" stop-color="#00F"/><stop offset="1" stop-color="#0FF" stop-opacity="0"/></radialGradient></defs></svg>