<svg width="80" height="80" fill="none" xmlns="http://www.w3.org/2000/svg"><mask id="a" mask-type="alpha" maskUnits="userSpaceOnUse" x="0" y="0" width="80" height="80"><path d="M80 0H0v80h80V0Z" fill="#fff"/></mask><g mask="url(#a)"><path d="M80 0H0v80h80V0Z" fill="#fff"/><path d="M34.337 37.626a.193.193 0 0 1-.184.132h-7.601l6.158 4.413a.19.19 0 0 0 .215.007c1.703-1.045 3.193-1.77 6.36-2.588 0 0-4.86 3.591-8.041 7.615a.899.899 0 0 0-.158.293l-.662 2.012 6.15-4.408a.19.19 0 0 1 .227 0l6.15 4.408-2.349-7.134a.186.186 0 0 1 .07-.212l6.15-4.408h-7.6a.193.193 0 0 1-.184-.132l-2.349-7.133-2.352 7.135Z" fill="url(#b)"/><path d="M74 39.259h-4.793V34.53h-2.543v4.729h-4.79v2.436h4.79v4.728h2.543v-4.728H74v-2.436Zm-20.702-3.35c1.243 0 2.037.637 2.037 1.691 0 1.102-.794 1.887-2.037 1.887H51.31V35.91h1.987Zm1.564 6.077c2.135-.269 3.9-2.083 3.9-4.386 0-2.989-2.062-4.63-5.39-4.63h-5.44v15.046h3.379V42.06l4.048 5.955h3.924l-4.421-6.03Zm-27.069-9.019h-10.06v3.039h3.305v12.008h3.453V36.006h3.304v-3.039h-.002Zm-16.414 5.516c-.968-.442-1.341-.907-1.341-1.52 0-.71.621-1.3 1.54-1.274.844.024 1.465.465 1.937 1.52l2.905-1.25c-.794-2.01-2.41-3.186-5.017-3.186-2.757 0-4.794 1.789-4.794 4.19 0 1.642.794 2.99 2.831 3.994l2.037 1.005c1.143.564 1.689.981 1.689 1.814 0 .883-.746 1.52-1.689 1.52-1.018 0-1.936-.564-2.36-1.838l-3.08.882c.696 2.475 2.758 3.921 5.44 3.921 2.906 0 5.142-1.838 5.142-4.485 0-2.033-1.093-3.406-3.305-4.411l-1.935-.883Z" fill="#261E3C"/></g><defs><linearGradient id="b" x1="27.475" y1="50.811" x2="45.488" y2="32.554" gradientUnits="userSpaceOnUse"><stop stop-color="#FA1660"/><stop offset=".28" stop-color="#FA1660"/><stop offset=".78" stop-color="#FF6E00"/><stop offset="1" stop-color="#FF6E00"/></linearGradient></defs></svg>