<svg xmlns="http://www.w3.org/2000/svg" version="1.1" xmlns:xlink="http://www.w3.org/1999/xlink" xmlns:svgjs="http://svgjs.com/svgjs" width="512" height="512" x="0" y="0" viewBox="0 0 208.404 208.404" style="enable-background:new 0 0 512 512" xml:space="preserve" class=""><g><g id="Layer_2" data-name="Layer 2"><g id="Layer_1-2" data-name="Layer 1"><g id="sun"><path d="m203.454 106.241-14.127 19.491a3.474 3.474 0 0 0 -.642 2.4l2.5 23.94a3.474 3.474 0 0 1 -2.043 3.534l-21.992 9.784a3.474 3.474 0 0 0 -1.762 1.761l-9.788 21.991a3.472 3.472 0 0 1 -3.534 2.043l-23.939-2.5a3.474 3.474 0 0 0 -2.4.642l-19.491 14.127a3.475 3.475 0 0 1 -4.077 0l-19.486-14.127a3.475 3.475 0 0 0 -2.4-.642l-23.94 2.5a3.476 3.476 0 0 1 -3.535-2.043l-9.783-21.992a3.476 3.476 0 0 0 -1.762-1.762l-21.991-9.788a3.474 3.474 0 0 1 -2.043-3.534l2.5-23.939a3.469 3.469 0 0 0 -.642-2.4l-14.126-19.486a3.472 3.472 0 0 1 0-4.077l14.126-19.491a3.47 3.47 0 0 0 .642-2.4l-2.5-23.94a3.475 3.475 0 0 1 2.044-3.533l21.992-9.784a3.478 3.478 0 0 0 1.761-1.762l9.784-21.992a3.476 3.476 0 0 1 3.535-2.043l23.939 2.5a3.47 3.47 0 0 0 2.4-.642l19.49-14.126a3.472 3.472 0 0 1 4.077 0l19.491 14.126a3.469 3.469 0 0 0 2.4.642l23.94-2.5a3.472 3.472 0 0 1 3.534 2.043l9.785 21.992a3.476 3.476 0 0 0 1.761 1.761l21.99 9.785a3.475 3.475 0 0 1 2.043 3.535l-2.5 23.939a3.475 3.475 0 0 0 .642 2.4l14.127 19.491a3.475 3.475 0 0 1 0 4.076z" fill="#fbb03b" data-original="#fbb03b" class=""></path><path d="m191.176 152.066a3.46 3.46 0 0 1 -2.049 3.543l-21.987 9.791a3.517 3.517 0 0 0 -1.736 1.736l-9.795 21.987a3.46 3.46 0 0 1 -3.543 2.049l-23.932-2.5a3.467 3.467 0 0 0 -2.4.66l-19.485 14.1a3.44 3.44 0 0 1 -4.1 0l-19.486-14.1a3.465 3.465 0 0 0 -2.4-.66l-23.931 2.5a3.458 3.458 0 0 1 -3.543-2.049l-9.789-21.983a3.519 3.519 0 0 0 -1.737-1.736l-21.987-9.795a3.46 3.46 0 0 1 -2.049-3.543l2.5-23.932a3.462 3.462 0 0 0 -.66-2.4l-14.1-19.486a3.438 3.438 0 0 1 0-4.1l14.1-19.486a3.46 3.46 0 0 0 .66-2.4l-2.5-23.931a3.458 3.458 0 0 1 2.05-3.531l21.987-9.8a3.525 3.525 0 0 0 1.736-1.736l9.8-21.987a3.458 3.458 0 0 1 3.543-2.049l9.065.938a86.834 86.834 0 0 0 70.055 138.134 86.227 86.227 0 0 0 54.185-19z" fill="#f7931e" data-original="#f7931e" class=""></path><circle cx="104.202" cy="104.202" fill="#f9d53d" r="65.995" data-original="#f9d53d" class=""></circle><path d="m145.4 155.713a65.942 65.942 0 0 1 -96.738-87.078 6.818 6.818 0 0 0 -.034.833 86.822 86.822 0 0 0 86.835 86.832 78.221 78.221 0 0 0 9.937-.587z" fill="#f7b43e" data-original="#f7b43e" class=""></path><path d="m104.2 145.883a17.367 17.367 0 0 1 -17.367-17.367v-10.416h34.734v10.42a17.366 17.366 0 0 1 -17.367 17.363z" fill="#fbb03b" data-original="#fbb03b" class=""></path><g fill="#1a1a1a"><path d="m207.743 102.164-15.6-21.529 2.757-26.448a3.472 3.472 0 0 0 -2.044-3.534l-24.3-10.809-10.809-24.3a3.486 3.486 0 0 0 -3.534-2.043l-26.443 2.764-21.529-15.604a3.475 3.475 0 0 0 -4.077 0l-21.529 15.6-26.448-2.761a3.486 3.486 0 0 0 -3.534 2.044l-10.809 24.3-24.3 10.809a3.472 3.472 0 0 0 -2.044 3.533l2.761 26.449-15.6 21.529a3.475 3.475 0 0 0 0 4.077l15.6 21.529-2.761 26.447a3.473 3.473 0 0 0 2.044 3.535l24.3 10.808 10.809 24.3a3.494 3.494 0 0 0 3.535 2.044l26.449-2.761 21.529 15.6a3.474 3.474 0 0 0 4.077 0l21.529-15.6 26.447 2.763a3.474 3.474 0 0 0 3.535-2.044l10.808-24.3 24.3-10.809a3.469 3.469 0 0 0 2.044-3.534l-2.766-26.449 15.6-21.529a3.472 3.472 0 0 0 .003-4.077zm-22.007 22.606a3.481 3.481 0 0 0 -.643 2.4l2.637 25.262-23.211 10.327a3.472 3.472 0 0 0 -1.762 1.762l-10.327 23.211-25.261-2.639a3.469 3.469 0 0 0 -2.4.643l-20.569 14.906-20.565-14.906a3.463 3.463 0 0 0 -2.039-.662c-.12 0-.241.007-.361.019l-25.262 2.637-10.327-23.211a3.469 3.469 0 0 0 -1.762-1.762l-23.211-10.327 2.639-25.261a3.476 3.476 0 0 0 -.643-2.4l-14.906-20.569 14.906-20.565a3.485 3.485 0 0 0 .643-2.4l-2.638-25.262 23.212-10.327a3.476 3.476 0 0 0 1.762-1.762l10.327-23.211 25.26 2.639a3.508 3.508 0 0 0 2.4-.643l20.565-14.906 20.57 14.906a3.506 3.506 0 0 0 2.4.643l25.262-2.638 10.327 23.212a3.48 3.48 0 0 0 1.762 1.762l23.212 10.327-2.639 25.26a3.475 3.475 0 0 0 .643 2.4l14.905 20.565z" fill="#1a1a1a" data-original="#1a1a1a" class=""></path><path d="m104.2 34.734a69.468 69.468 0 1 0 52.909 114.438 3.473 3.473 0 0 0 -5.295-4.5 62.753 62.753 0 1 1 7.54-11.1 3.474 3.474 0 1 0 6.119 3.29 69.412 69.412 0 0 0 -61.273-102.128z" fill="#1a1a1a" data-original="#1a1a1a" class=""></path><path d="m86.835 93.782a3.474 3.474 0 0 0 6.947 0 17.367 17.367 0 1 0 -34.734 0 3.474 3.474 0 0 0 6.947 0 10.42 10.42 0 1 1 20.84 0z" fill="#1a1a1a" data-original="#1a1a1a" class=""></path><path d="m142.41 93.782a3.474 3.474 0 0 0 6.947 0 17.368 17.368 0 0 0 -34.735 0 3.474 3.474 0 0 0 6.947 0 10.421 10.421 0 0 1 20.841 0z" fill="#1a1a1a" data-original="#1a1a1a" class=""></path><path d="m104.2 149.357a20.864 20.864 0 0 0 20.841-20.841v-10.416a3.475 3.475 0 0 0 -3.474-3.474h-34.732a3.474 3.474 0 0 0 -3.473 3.474v10.42a20.863 20.863 0 0 0 20.838 20.837zm-13.891-27.788h27.791v6.947a13.894 13.894 0 1 1 -27.787 0z" fill="#1a1a1a" data-original="#1a1a1a" class=""></path></g></g></g></g></g></svg>