<svg xmlns="http://www.w3.org/2000/svg" version="1.1" xmlns:xlink="http://www.w3.org/1999/xlink" xmlns:svgjs="http://svgjs.com/svgjs" width="512" height="512" x="0" y="0" viewBox="0 0 512 512" style="enable-background:new 0 0 512 512" xml:space="preserve" class=""><g><g><g><path d="m444.807 325.583c-67.723 30.373-147.246.095-177.619-67.628s-.095-147.246 67.628-177.619c25.735-11.542 53.17-14.305 78.968-9.604-49.527-27.659-111.041-32.382-166.778-7.384-93.642 41.998-135.508 151.955-93.51 245.597s151.955 135.508 245.597 93.51c55.737-24.998 93.122-74.075 105.406-129.456-13.648 22.392-33.957 41.042-59.692 52.584z" fill="#2f92ff" data-original="#ffe02f" class=""></path></g><g><path d="m338.921 418.085c-2.162-23.258-14.224-44.035-32.848-57.399-1.095-29.159-24.743-52.647-53.967-53.482-21.059-32.755-57.507-53.087-97.32-53.087-5.518 0-10.946.393-16.26 1.144 2.199 18.098 7.117 36.176 14.97 53.684 33.207 74.041 108.902 115.7 185.425 109.14z" fill="#1a63db" data-original="#f9c301" class=""></path></g><g><path d="m279.884 373.793c1.28-3.422 1.984-7.124 1.984-10.993 0-17.329-14.048-31.377-31.377-31.377-4.126 0-8.062.804-11.671 2.252-14.012-32.535-46.361-55.315-84.034-55.315-50.511 0-91.459 40.948-91.459 91.459-30.833 0-55.828 24.995-55.828 55.828s24.995 55.828 55.828 55.828h195.875c30.833 0 55.828-24.995 55.828-55.828 0-23.523-14.556-43.634-35.146-51.854z" fill="#eff3f5" data-original="#eff3f5"></path></g><g><path d="m279.884 373.793c1.28-3.422 1.984-7.124 1.984-10.993 0-17.329-14.048-31.377-31.377-31.377-4.126 0-8.062.804-11.671 2.252-14.012-32.535-46.361-55.315-84.034-55.315-50.511 0-91.459 40.948-91.459 91.459-30.833 0-55.828 24.995-55.828 55.828s24.995 55.828 55.828 55.828h195.875c30.833 0 55.828-24.995 55.828-55.828 0-23.523-14.556-43.634-35.146-51.854z" fill="#eff3f5" data-original="#eff3f5"></path></g><g><path d="m279.884 373.793c1.28-3.422 1.984-7.124 1.984-10.993 0-17.329-14.048-31.377-31.377-31.377-1.931 0-3.818.183-5.652.519 2.01 9.094 3.078 18.542 3.078 28.241 0 55.12-34.223 102.247-82.58 121.291h93.864c30.833 0 55.828-24.995 55.828-55.828.001-23.523-14.555-43.633-35.145-51.853z" fill="#c9e2e7" data-original="#c9e2e7" class=""></path></g><g><path d="m480.948 182.703c.858-2.293 1.33-4.774 1.33-7.366 0-11.612-9.413-21.025-21.025-21.025-2.765 0-5.402.539-7.821 1.509-9.39-21.801-31.066-37.066-56.31-37.066-33.847 0-61.286 27.439-61.286 61.286-20.661 0-37.41 16.749-37.41 37.41s16.749 37.41 37.41 37.41h131.254c20.661 0 37.41-16.749 37.41-37.41-.001-15.764-9.755-29.24-23.552-34.748z" fill="#eff3f5" data-original="#eff3f5"></path></g><g><path d="m480.948 182.703c.858-2.293 1.33-4.774 1.33-7.366 0-11.612-9.413-21.025-21.025-21.025-2.765 0-5.402.539-7.821 1.509-9.39-21.801-31.066-37.066-56.31-37.066-33.847 0-61.286 27.439-61.286 61.286-20.661 0-37.41 16.749-37.41 37.41s16.749 37.41 37.41 37.41h131.254c20.661 0 37.41-16.749 37.41-37.41-.001-15.764-9.755-29.24-23.552-34.748z" fill="#eff3f5" data-original="#eff3f5"></path></g><g><path d="m480.948 182.703c.858-2.293 1.33-4.774 1.33-7.366 0-11.612-9.413-21.025-21.025-21.025-1.294 0-2.559.122-3.787.347 1.347 6.094 2.063 12.425 2.063 18.924 0 36.936-22.933 68.515-55.336 81.276h62.898c20.661 0 37.41-16.749 37.41-37.41-.002-15.762-9.756-29.238-23.553-34.746z" fill="#c9e2e7" data-original="#c9e2e7" class=""></path></g><g><path d="m44.423 132.933 11.41 23.119 25.513 3.707-18.462 17.995 4.358 25.41-22.819-11.997-22.82 11.997 4.359-25.41-18.462-17.995 25.513-3.707z" fill="#2f92ff" data-original="#ffe02f" class=""></path></g><g><path d="m442.322 416.788 10.097 20.458 22.577 3.281-16.337 15.925 3.857 22.486-20.194-10.617-20.194 10.617 3.857-22.486-16.337-15.925 22.577-3.281z" fill="#2f92ff" data-original="#ffe02f" class=""></path></g><g><path d="m132.292 30.525 8.596 17.417 19.22 2.793-13.908 13.557 3.283 19.143-17.191-9.038-17.192 9.038 3.284-19.143-13.908-13.557 19.22-2.793z" fill="#2f92ff" data-original="#ffe02f" class=""></path></g><g><path d="m507.301 266.044c-3.401-1.371-7.296-.079-9.206 3.053-13.374 21.938-32.862 39.103-56.355 49.641-30.93 13.873-65.407 14.871-97.082 2.81s-56.756-35.736-70.626-66.667c-13.872-30.924-14.871-65.398-2.81-97.074 12.061-31.675 35.737-56.76 66.666-70.633 23.492-10.537 49.269-13.671 74.546-9.065 3.609.655 7.163-1.392 8.403-4.843 1.24-3.452-.199-7.294-3.401-9.083-25.764-14.391-54.92-22.821-84.316-24.379-30.827-1.633-60.829 3.986-89.179 16.704-35.953 16.122-65.722 42.381-86.088 75.939-2.149 3.541-1.02 8.154 2.521 10.303s8.153 1.021 10.303-2.521c18.781-30.945 46.238-55.163 79.403-70.035 39.79-17.849 83.33-20.508 123.902-8.276-14.473 1.624-28.691 5.497-42.231 11.57-34.585 15.513-61.059 43.562-74.546 78.982s-12.371 73.971 3.142 108.549c15.508 34.586 43.555 61.06 78.974 74.547 35.421 13.488 73.974 12.371 108.558-3.142 13.543-6.074 25.897-14.12 36.737-23.851-17.849 38.441-48.797 69.191-88.595 87.033-23.977 10.75-49.227 15.994-75.132 15.635-4.105-17.784-15.703-32.975-32.122-41.603.4-2.247.602-4.531.602-6.838 0-21.436-17.44-38.876-38.877-38.876-2.578 0-5.126.251-7.624.751-16.86-32.902-50.741-53.815-88.081-53.815-2.002 0-3.989.067-5.962.185-7.354-33.352-4.955-67.846 7.033-100.163 1.44-3.883-.54-8.2-4.423-9.64s-8.2.54-9.64 4.423c-12.853 34.65-15.536 71.615-7.876 107.414-42.339 9.123-74.696 45.412-77.84 89.652-31.518 3.608-56.079 30.447-56.079 62.916 0 34.919 28.409 63.328 63.327 63.328h41.529c4.142 0 7.5-3.358 7.5-7.5s-3.358-7.5-7.5-7.5h-41.528c-26.648 0-48.328-21.68-48.328-48.328s21.68-48.328 48.328-48.328c4.142 0 7.5-3.358 7.5-7.5 0-46.295 37.664-83.959 83.959-83.959 33.578 0 63.859 19.933 77.146 50.782 1.609 3.736 5.904 5.507 9.681 3.994 2.833-1.137 5.82-1.713 8.878-1.713 13.165 0 23.877 10.711 23.877 23.876 0 2.874-.508 5.688-1.509 8.364-1.429 3.82.456 8.082 4.244 9.594 18.484 7.379 30.427 24.999 30.427 44.889 0 26.648-21.68 48.328-48.328 48.328h-119.418c-4.142 0-7.5 3.358-7.5 7.5s3.358 7.5 7.5 7.5h119.417c34.714 0 62.981-28.079 63.312-62.717.294.001.589.01.882.01 27.152 0 53.606-5.696 78.761-16.974 28.355-12.712 52.509-31.381 71.791-55.488 18.388-22.988 31.484-50.369 37.873-79.182.794-3.579-1.118-7.209-4.52-8.579z" fill="#000000" data-original="#000000" class=""></path><path d="m328.682 173.11c-21.376 3.435-37.756 22.01-37.756 44.34 0 24.763 20.146 44.909 44.91 44.909h29.807c4.142 0 7.5-3.358 7.5-7.5s-3.358-7.5-7.5-7.5h-29.807c-16.492 0-29.91-13.417-29.91-29.909s13.417-29.91 29.91-29.91c4.142 0 7.5-3.358 7.5-7.5 0-29.658 24.128-53.786 53.786-53.786 21.511 0 40.91 12.77 49.422 32.533 1.609 3.737 5.903 5.508 9.68 3.995 1.605-.644 3.297-.97 5.029-.97 7.458 0 13.525 6.067 13.525 13.525 0 1.628-.288 3.223-.854 4.738-1.429 3.819.456 8.081 4.244 9.593 11.44 4.567 18.832 15.472 18.832 27.782 0 16.492-13.417 29.909-29.91 29.909h-66.404c-4.142 0-7.5 3.358-7.5 7.5s3.358 7.5 7.5 7.5h66.404c24.763 0 44.91-20.146 44.91-44.909 0-16.283-8.611-30.928-22.404-38.872.122-1.072.183-2.153.183-3.241 0-15.728-12.796-28.525-28.525-28.525-1.263 0-2.516.083-3.755.246-11.982-21.944-35.033-35.804-60.376-35.804-35.592.001-64.956 27.168-68.441 61.856z" fill="#000000" data-original="#000000" class=""></path><path d="m17.903 180.373-3.692 21.523c-.482 2.814.674 5.658 2.984 7.335 2.309 1.678 5.371 1.899 7.898.571l19.33-10.163 19.329 10.163c1.098.577 2.295.861 3.489.861 1.555 0 3.103-.483 4.409-1.432 2.31-1.678 3.466-4.522 2.984-7.335l-3.691-21.524 15.638-15.243c2.044-1.993 2.78-4.973 1.898-7.688s-3.229-4.694-6.054-5.104l-21.611-3.141-9.665-19.583c-1.264-2.56-3.871-4.181-6.726-4.181s-5.462 1.621-6.726 4.181l-9.665 19.583-21.611 3.141c-2.825.41-5.172 2.389-6.054 5.104-.882 2.715-.146 5.695 1.898 7.688zm16.189-16.9c2.443-.355 4.555-1.889 5.647-4.103l4.684-9.491 4.684 9.491c1.092 2.213 3.204 3.748 5.647 4.103l10.475 1.522-7.579 7.388c-1.768 1.723-2.575 4.206-2.157 6.638l1.789 10.433-9.368-4.926c-1.093-.574-2.292-.861-3.49-.861s-2.398.287-3.49.861l-9.369 4.926 1.79-10.432c.417-2.433-.389-4.916-2.157-6.639l-7.579-7.388z" fill="#000000" data-original="#000000" class=""></path><path d="m476.075 433.105-18.676-2.714-8.352-16.923c-1.264-2.56-3.871-4.181-6.726-4.181-2.854 0-5.462 1.621-6.726 4.181l-8.352 16.923-18.675 2.714c-2.825.41-5.172 2.389-6.054 5.104s-.146 5.695 1.898 7.688l13.513 13.172-3.19 18.6c-.482 2.813.674 5.657 2.984 7.335 1.307.949 2.854 1.432 4.409 1.432 1.193 0 2.392-.285 3.489-.861l16.704-8.782 16.704 8.782c2.529 1.329 5.59 1.107 7.898-.571 2.31-1.678 3.466-4.521 2.984-7.335l-3.19-18.6 13.514-13.172c2.044-1.993 2.78-4.973 1.898-7.688-.882-2.714-3.229-4.693-6.054-5.104zm-22.651 17.976c-1.768 1.723-2.575 4.206-2.157 6.639l1.288 7.508-6.743-3.545c-2.186-1.148-4.795-1.148-6.98 0l-6.743 3.545 1.288-7.509c.417-2.433-.389-4.915-2.157-6.638l-5.455-5.317 7.539-1.096c2.443-.355 4.554-1.889 5.647-4.103l3.372-6.831 3.371 6.831c1.092 2.213 3.204 3.748 5.647 4.103l7.539 1.096z" fill="#000000" data-original="#000000" class=""></path><path d="m110.325 66.911-2.617 15.257c-.482 2.813.674 5.657 2.984 7.335 2.309 1.678 5.37 1.899 7.898.571l13.701-7.204 13.701 7.204c1.098.577 2.295.861 3.489.861 1.555 0 3.103-.483 4.409-1.432 2.31-1.678 3.466-4.522 2.984-7.335l-2.617-15.257 11.084-10.805c2.044-1.993 2.78-4.973 1.898-7.688s-3.229-4.694-6.054-5.104l-15.319-2.226-6.851-13.881c-1.264-2.56-3.871-4.181-6.726-4.181s-5.462 1.621-6.726 4.181l-6.851 13.881-15.319 2.226c-2.825.41-5.172 2.389-6.054 5.104s-.146 5.695 1.898 7.688zm14.45-11.547c2.443-.355 4.555-1.889 5.647-4.103l1.87-3.79 1.87 3.79c1.092 2.213 3.204 3.748 5.647 4.103l4.182.608-3.026 2.95c-1.768 1.723-2.575 4.206-2.157 6.638l.714 4.166-3.74-1.967c-1.093-.574-2.291-.861-3.49-.861s-2.397.287-3.49.861l-3.74 1.967.714-4.166c.417-2.433-.389-4.915-2.157-6.638l-3.026-2.95z" fill="#000000" data-original="#000000" class=""></path></g></g></g></svg>